<svg width="26" height="27" viewBox="0 0 26 27" fill="none" xmlns="http://www.w3.org/2000/svg">
<path fill-rule="evenodd" clip-rule="evenodd" d="M9.0945 1.52544C9.0945 1.01984 8.67919 0.599998 8.15236 0.599998H8.15108C7.63579 0.599998 7.20766 1.01984 7.20766 1.52544C7.20766 2.90656 8.36515 4.04064 9.78668 4.04064H11.0313C11.8863 4.04064 12.6041 4.73056 12.6041 5.58176V5.7904C10.8929 5.7904 9.20858 5.816 7.56016 5.8416C3.18275 5.8416 0 8.94816 0 13.24V18.7517C0 23.0435 3.18275 26.1501 7.54735 26.1501C9.29575 26.1872 11.0698 26.2 12.831 26.2C14.5922 26.2 16.3406 26.1885 18.089 26.1501C22.4536 26.1501 25.6364 23.0435 25.6364 18.7517V13.2387C25.6364 8.94816 22.4536 5.84032 18.089 5.84032C17.669 5.83631 17.2504 5.83076 16.8328 5.82521C16.0499 5.81482 15.2705 5.80448 14.4922 5.80448V5.57024C14.4794 3.71936 12.931 2.20384 11.0313 2.19104H9.78668C9.40983 2.19104 9.0945 1.89536 9.0945 1.52544ZM8.41747 13.1115C8.59451 12.9379 8.83353 12.8418 9.08168 12.8445H9.08297C9.59834 12.843 10.0193 13.2554 10.0277 13.7699V15.0653H11.3479C11.8623 15.0645 12.2823 15.4759 12.2914 15.9895C12.2897 16.2375 12.189 16.4746 12.0117 16.6483C11.8344 16.822 11.595 16.918 11.3467 16.9149H10.0264V18.2218C10.0173 18.7354 9.59735 19.1467 9.08297 19.1459C8.55486 19.1459 8.13955 18.7274 8.13955 18.2205V16.9149H6.80646C6.29117 16.9149 5.86304 16.5079 5.86304 15.9895C5.87214 15.4759 6.29207 15.0645 6.80646 15.0653H8.13827V13.7699C8.13996 13.5221 8.24043 13.2852 8.41747 13.1115ZM18.9696 17.2221H18.8427C18.3312 17.2221 17.9166 17.6361 17.9166 18.1469C17.9166 18.6576 18.3312 19.0717 18.8427 19.0717H18.9683C19.2163 19.0744 19.4551 18.9785 19.6321 18.8051C19.8091 18.6317 19.9097 18.3951 19.9118 18.1475C19.9027 17.6339 19.4827 17.2226 18.9683 17.2234L18.9696 17.2221ZM16.6918 12.9814H16.8175C17.3323 12.9807 17.7525 13.3928 17.7609 13.9069C17.7588 14.1545 17.6582 14.3911 17.4812 14.5645C17.3042 14.7378 17.0654 14.8338 16.8175 14.831H16.6918C16.1804 14.831 15.7657 14.417 15.7657 13.9062C15.7657 13.3955 16.1804 12.9814 16.6918 12.9814Z" fill="url(#paint0_linear_296_11)"/>
<defs>
<linearGradient id="paint0_linear_296_11" x1="14.4604" y1="-8.81875" x2="-4.37263" y2="13.5279" gradientUnits="userSpaceOnUse">
<stop stop-color="#5C8FFF"/>
<stop offset="1" stop-color="#C14BFF"/>
</linearGradient>
</defs>
</svg>
